:version 1.10
:name ASF
:units
  mass 1
  length 1
  angle deg
:documentation
  ASF file generated by Kaydara
:root
  axis xyz
  order  tx ty tz rx ry rz
  position 0 0 0
  orientation 0 0 0
:bonedata
  begin
    id 1
    name abdomenDummy
    direction 1 -1.27917e-005 -1.26829e-007
    length 1.79048
    axis 0 0 0 xyz
  end
  begin
    id 2
    name abdomen
    direction 0.987238 0.159249 -9.68575e-008
    length 8.61378
    axis 2.73208e-005 5.54953e-006 9.16328 xyz
    dof rx ry rz
  end
  begin
    id 3
    name chest
    direction 0 0 0
    length 0
    axis 2.65071e-005 8.63688e-006 2.59796 xyz
    dof rx ry rz
  end
  begin
    id 4
    name neckDummyDummy
    direction 0.998972 0.0453274 -1.50742e-007
    length 9.56202
    axis 2.65071e-005 8.63688e-006 2.59796 xyz
  end
  begin
    id 5
    name neckDummy
    direction 0.99977 0.0214525 -1.61748e-007
    length 1.93574
    axis 2.62932e-005 9.26758e-006 1.22924 xyz
    dof rx ry rz
  end
  begin
    id 6
    name neck
    direction 0.99928 -0.0379406 -1.88707e-007
    length 3.70367
    axis 2.56966e-005 1.08122e-005 -2.17436 xyz
    dof rx ry rz
  end
  begin
    id 7
    name head
    direction 0.992648 -0.121037 -2.25408e-007
    length 6.35158
    axis 2.47068e-005 1.29149e-005 -6.95196 xyz
    dof rx ry rz
  end
  begin
    id 8
    name figureHair
    direction -0.86681 -0.498639 -7.83376e-008
    length 8.29884
    axis -2.7515e-005 4.48842e-006 -150.09 xyz
    dof rx ry rz
  end
  begin
    id 9
    name lCollarDummy
    direction 0.994611 0.0451299 -0.0933417
    length 9.60395
    axis 2.65071e-005 8.63688e-006 2.59796 xyz
  end
  begin
    id 10
    name lCollar
    direction 0.0384146 0.00127577 -0.999261
    length 6.95318
    axis 90.4899 87.7973 1.90202 xyz
    dof rx ry rz
  end
  begin
    id 11
    name lShldr
    direction -0.030648 0.0920515 -0.995282
    length 9.61158
    axis -161.793 84.4324 108.415 xyz
    dof rx ry rz
  end
  begin
    id 12
    name lForeArm
    direction 0.000163956 -0.0977586 -0.99521
    length 8.6068
    axis 0.134773 84.3899 -89.8525 xyz
    dof rx ry rz
  end
  begin
    id 13
    name lHand
    direction -0.0190533 -0.1444 -0.989336
    length 7.61479
    axis -7.3729 81.6249 -97.517 xyz
    dof rx ry rz
  end
  begin
    id 14
    name rCollarDummy
    direction 0.994871 0.0442627 0.0909555
    length 9.60761
    axis 2.65071e-005 8.63688e-006 2.59796 xyz
  end
  begin
    id 15
    name rCollar
    direction 0.0334251 -4.74072e-007 0.999441
    length 6.97058
    axis -178.152 -88.0845 -0.000674207 xyz
    dof rx ry rz
  end
  begin
    id 16
    name rShldr
    direction -0.026922 0.0719509 0.997045
    length 9.60913
    axis 71.2822 -85.594 110.514 xyz
    dof rx ry rz
  end
  begin
    id 17
    name rForeArm
    direction 0.00134679 -0.118986 0.992895
    length 8.57176
    axis -88.7923 -83.1659 -89.3516 xyz
    dof rx ry rz
  end
  begin
    id 18
    name rHand
    direction -0.0185183 -0.0768601 0.99687
    length 7.69687
    axis -74.5596 -85.4655 -103.546 xyz
    dof rx ry rz
  end
  begin
    id 19
    name lThighDummy
    direction -0.236086 -0.0385456 -0.970967
    length 4.99155
    axis 0 0 0 xyz
  end
  begin
    id 20
    name lThigh
    direction -0.993968 0.0148998 -0.108653
    length 13.572
    axis -91.4001 6.23768 179.141 xyz
    dof rx ry rz
  end
  begin
    id 21
    name lShin
    direction -0.992341 0.0904576 -0.0841193
    length 18.5862
    axis -91.4558 4.82538 174.792 xyz
    dof rx ry rz
  end
  begin
    id 22
    name lFoot
    direction 0.0209381 -0.999771 -0.00453005
    length 8.44474
    axis 4.86759 0.259522 -88.8001 xyz
    dof rx ry rz
  end
  begin
    id 23
    name rThighDummy
    direction -0.236086 -0.0385456 0.970967
    length 4.99155
    axis 0 0 0 xyz
  end
  begin
    id 24
    name rThigh
    direction -0.993968 0.0148995 0.108653
    length 13.5721
    axis -89.7059 -6.2377 179.141 xyz
    dof rx ry rz
  end
  begin
    id 25
    name rShin
    direction -0.9925 0.0899962 0.0827255
    length 18.6716
    axis -89.2745 -4.74775 174.819 xyz
    dof rx ry rz
  end
  begin
    id 26
    name rFoot
    direction 0.0301721 -0.999545 9.70865e-005
    length 8.45013
    axis -2.50066e-005 -0.00555246 -88.271 xyz
    dof rx ry rz
  end
:hierarchy
  begin
    root abdomenDummy lThighDummy rThighDummy
    abdomenDummy abdomen
    abdomen chest
    chest neckDummyDummy lCollarDummy rCollarDummy
    neckDummyDummy neckDummy
    neckDummy neck
    neck head
    head figureHair
    lCollarDummy lCollar
    lCollar lShldr
    lShldr lForeArm
    lForeArm lHand
    rCollarDummy rCollar
    rCollar rShldr
    rShldr rForeArm
    rForeArm rHand
    lThighDummy lThigh
    lThigh lShin
    lShin lFoot
    rThighDummy rThigh
    rThigh rShin
    rShin rFoot
  end

:SAMPLES-PER-SECOND 25
:FULLY-SPECIFIED
:DEGREES
1340
root  10.0926 31.4166 -2.801 179.311 -3.21854 107.806
abdomen  2.67776 -6.00176 -54.7396
chest  0.304035 0.991536 -13.6504
neckDummy  9.09964e-021 0 8.72668e-016
neck  3.29399 14.6064 13.192
head  -3.75307 -11.7759 3.70609
figureHair  0 1.51661e-021 -9.5315e-016
lCollar  -5.15695e-016 -6.42944e-016 -7.59357e-014
lShldr  -2.43231 -68.1278 -30.7633
lForeArm  22.0949 -24.1408 -0.452858
lHand  0.254698 0.195082 5.2986
rCollar  1.7976e-016 -5.12864e-014 1.62755e-015
rShldr  31.0344 14.0834 72.3585
rForeArm  -4.33393 1.02882 24.861
rHand  0.0519325 -16.981 4.06282
lThigh  -28.0738 -69.3454 21.2613
lShin  -6.87124 63.5069 4.26763
lFoot  2.17885 -0.370113 6.50444
rThigh  25.453 -68.2851 -9.39266
rShin  9.18737 61.7015 -2.88415
rFoot  -6.43246 1.53674 5.29615
1341
root  10.2797 30.2831 -2.84973 179.493 -3.14076 106.05
abdomen  2.80971 -5.65521 -57.8839
chest  0.383963 1.30125 -13.7931
neckDummy  9.09964e-021 0 8.72668e-016
neck  3.27637 14.4282 14.1504
head  -3.93943 -12.1556 4.40607
figureHair  0 1.51661e-021 -9.5315e-016
lCollar  -5.15695e-016 -6.42944e-016 -7.59357e-014
lShldr  -10.4982 -68.7053 -21.5356
lForeArm  22.0827 -24.3817 -0.442194
lHand  0.254698 0.195082 5.2986
rCollar  1.7976e-016 -5.12864e-014 1.62755e-015
rShldr  29.0837 11.6654 70.8457
rForeArm  -2.91552 1.03806 24.0941
rHand  -0.223683 -19.5004 5.62864
lThigh  -30.5803 -72.5188 24.8363
lShin  -6.38767 70.2088 5.3395
lFoot  1.29702 -0.237246 7.85433
rThigh  26.8498 -71.6689 -12.0096
rShin  10.152 68.6999 -3.41527
rFoot  -5.77086 1.66731 7.06676
1342
root  10.4757 29.105 -2.89885 179.899 -2.90349 104.362
abdomen  2.79889 -5.00677 -60.8471
chest  0.394168 1.18201 -13.8589
neckDummy  9.09964e-021 0 8.72668e-016
neck  3.20736 14.2488 14.747
head  -4.12911 -12.4693 5.16157
figureHair  0 1.51661e-021 -9.5315e-016
lCollar  -5.15695e-016 -6.42944e-016 -7.59357e-014
lShldr  -18.3455 -68.4533 -12.956
lForeArm  22.637 -25.4344 -0.395298
lHand  0.254698 0.195082 5.2986
rCollar  1.7976e-016 -5.12864e-014 1.62755e-015
rShldr  27.8626 9.6047 69.1573
rForeArm  -1.86481 1.03531 24.374
rHand  -0.538032 -21.7568 7.05973
lThigh  -34.4811 -75.7244 29.3972
lShin  -3.17515 76.5103 8.95012
lFoot  0.858648 -0.165958 8.83647
rThigh  30.9078 -74.9659 -17.135
rShin  9.52877 75.4742 -5.2138
rFoot  -5.24195 1.76271 8.52208
1343
root  10.686 27.8858 -2.95026 -179.592 -2.68164 102.892
abdomen  2.70175 -4.2804 -63.2074
chest  0.416998 0.68391 -14.2502
neckDummy  9.09964e-021 0 8.72668e-016
neck  3.26185 14.681 15.26
head  -4.47052 -13.0108 5.91176
figureHair  0 1.51661e-021 -9.5315e-016
lCollar  -5.15695e-016 -6.42944e-016 -7.59357e-014
lShldr  -25.4336 -67.5385 -5.04632
lForeArm  23.0169 -27.0203 -0.323159
lHand  0.254698 0.195082 5.2986
rCollar  1.7976e-016 -5.12864e-014 1.62755e-015
rShldr  27.2469 7.58419 67.4624
rForeArm  -1.52295 1.02533 25.2673
rHand  -0.956127 -23.3436 8.78463
lThigh  -42.3421 -78.9612 37.6646
lShin  -9.05784 82.5199 3.23586
lFoot  0.754327 -0.151815 9.62785
rThigh  38.2342 -78.3616 -25.4551
rShin  13.6367 82.0028 -2.24223
rFoot  -4.78278 1.80492 9.55259
1344
root  10.9146 26.6381 -3.00065 -178.906 -2.41806 101.585
abdomen  2.45173 -3.84463 -65.1223
chest  0.266845 0.499707 -14.6222
neckDummy  9.09964e-021 0 8.72668e-016
neck  3.19243 14.7917 15.1898
head  -4.72721 -13.3806 6.81649
figureHair  0 1.51661e-021 -9.5315e-016
lCollar  -5.15695e-016 -6.42944e-016 -7.59357e-014
lShldr  -31.2104 -66.0125 2.52094
lForeArm  23.1123 -28.5646 -0.250945
lHand  0.254698 0.195082 5.2986
rCollar  1.7976e-016 -5.12864e-014 1.62755e-015
rShldr  26.7403 5.72014 65.9588
rForeArm  -1.70243 1.01278 26.34
rHand  -1.44057 -24.6893 10.637
lThigh  -57.5001 -82.0556 53.0937
lShin  37.1146 86.9331 49.6536
lFoot  0.836249 -0.171698 10.0907
rThigh  52.3553 -81.4881 -40.5762
rShin  -19.8702 87.6049 -36.9962
rFoot  -4.29014 1.81272 10.435
1345
root  11.1243 25.3531 -3.04494 -178.146 -1.97839 100.214
abdomen  2.12948 -3.48506 -66.8812
chest  0.0269274 0.721106 -14.7145
neckDummy  9.09964e-021 0 8.72668e-016
neck  2.78543 14.0795 14.2702
head  -4.86122 -13.5623 7.89554
figureHair  0 1.51661e-021 -9.5315e-016
lCollar  -5.15695e-016 -6.42944e-016 -7.59357e-014
lShldr  -35.8644 -64.3202 9.66494
lForeArm  23.9011 -29.6388 -0.199428
lHand  0.254698 0.195082 5.2986
rCollar  1.7976e-016 -5.12864e-014 1.62755e-015
rShldr  26.3205 4.318 64.1782
rForeArm  -2.39252 0.991875 28.0312
rHand  -1.76981 -25.7149 11.7578
lThigh  -86.9348 -84.1225 82.5491
lShin  150.893 85.928 163.569
lFoot  1.21812 -0.249685 10.1639
rThigh  79.9917 -83.4091 -69.3006
rShin  -155.832 85.596 -173.985
rFoot  -4.06025 1.84491 11.0988
